#!OML:ASF E:/inclinewalkrobotboard/Project1/Captureday1/Session1/subject1.ASF
:FULLY-SPECIFIED
:DEGREES
76
root 0 0 0 2.944003715097701 18.844791364539144 -9.499831251868352
lowerback 6.468809166970077 1.7056670456934293 -1.7398731223781945
upperback 0.26692502785551664 2.068430468588942 -1.7931806540561515
thorax -3.4628799811313575 1.0864197529846615 -0.9677984700878295
lowerneck -11.287938120650594 -7.131250376004591 -8.257158089401122
upperneck 6.825078547055158 -9.265092417391275 7.854145054499056
head 5.189942402398523 -4.260374924785349 3.282894532040823
rclavicle -1.0361314939826112E-14 3.0274987954027727E-16
rhumerus 4.0966522476412095 -12.956226791940816 -67.21757704932526
rradius 19.281430347268547
rwrist 57.507343612380936
rhand -7.652813189390722 21.886024258333354
rfingers 7.125019999999913
rthumb 18.25167355405246 -7.810917556484544
lclavicle -6.7732466879040376E-15 8.02935699888921E-15
lhumerus -25.180334499044626 4.517203607679072 78.01886550040722
lradius 37.76096248167582
lwrist -37.46213342188548
lhand -9.780037875965743 14.578945644908389
lfingers 7.047763187584101
lthumb 15.894954476891975 69.86211888763343
rfemur -14.555224303110858 0.18466124719521915 22.92025157329264
rtibia 72.13636224782348
rfoot 10.780740864851829 -2.1721214237887096
rtoes 13.510870941951348
lfemur -0.34925896271139223 -2.3159934320265076 -29.555837234308967
ltibia 23.533706428660977
lfoot -18.270638920980215 2.5647873865846584
ltoes 8.487186202887642
77
root 0 0 0 2.0945007379714426 17.343761147619052 -9.131634319214836
lowerback 6.156638402533239 1.6309547828619162 -1.846686391276024
upperback 0.17052087693565232 1.9777668014436682 -1.778092495224187
thorax -3.3886269618338574 1.0391237233078605 -0.8815566451132972
lowerneck -11.439925909519655 -7.183320240491366 -8.32382599822971
upperneck 7.142232313870408 -9.381599403778464 8.16503982499662
head 5.315316588957742 -4.305941060829216 3.382012594443601
rclavicle -1.0330768754342115E-14 3.0516152672776053E-16
rhumerus 3.9656347791351187 -12.868431357657228 -67.30517876925315
rradius 19.171467363255083
rwrist 57.573274233670915
rhand -7.614424152753967 21.891182078676945
rfingers 7.125019999999913
rthumb 18.2886734653507 -7.80513664456884
lclavicle -6.568845146996654E-15 8.200620557376641E-15
lhumerus -25.4279110858899 4.2003166103790335 78.32920358987118
lradius 37.99410629595168
lwrist -37.525020795472955
lhand -9.832270187189744 14.570627714042676
lfingers 7.046203986288147
lthumb 15.839357155718027 70.11468661668873
rfemur -14.399098357113196 0.2619392753451866 22.938911567230758
rtibia 71.94410090148197
rfoot 10.867332630535394 -2.124147539308998
rtoes 13.62436308674461
lfemur 0.3267825991524482 -2.3308672890987006 -29.663856886634328
ltibia 23.330672013377903
lfoot -18.421173292420246 2.5257579530442156
ltoes 8.1335397754273
78
root 0 0 0 1.4130950158067184 15.881022935169543 -8.780603713131198
lowerback 5.892254158153621 1.580281143135145 -1.9334921991169267
upperback 0.08307680283389329 1.9166723392678389 -1.7690940220172946
thorax -3.328623967182335 1.0070294651900786 -0.8164944348247205
lowerneck -11.568910707180518 -7.187641111451516 -8.39363042572476
upperneck 7.364666395865886 -9.426973141150611 8.427418019800216
head 5.400450408110785 -4.317811561356484 3.4705065090315723
rclavicle -1.030375281130314E-14 3.102493652756886E-16
rhumerus 3.8686457140179282 -12.796536118238196 -67.37019197546526
rradius 19.089165243524356
rwrist 57.614009321088844
rhand -7.583181275051613 21.888382352599763
rfingers 7.125019999999912
rthumb 18.318716591089576 -7.807253964765675
lclavicle -6.4285662245088774E-15 8.334558016785602E-15
lhumerus -25.636818490778865 3.8722591882358905 78.61498102425587
lradius 38.279666364664955
lwrist -37.53062519236855
lhand -9.876790593044309 14.572354397695953
lfingers 7.044832678326876
lthumb 15.791923107889911 70.45451144488199
rfemur -14.248079845654225 0.3367157429436318 22.953386637391354
rtibia 71.80684510425488
rfoot 10.945438153976877 -2.0820144186327116
rtoes 13.769916882291566
lfemur 0.9309424620221929 -2.344782010289989 -29.757413843323683
ltibia 23.125564042806364
lfoot -18.56888107938939 2.495539505184036
ltoes 7.792623475126042
79
root 0 0 0 0.8120956091568927 14.427229083898801 -8.44685386874948
lowerback 5.642384927080894 1.542942565925339 -2.013185232066644
upperback -0.005601311630865524 1.871570896225736 -1.7671195920147098
thorax -3.276342172554796 0.9831907642260616 -0.7643709353603081
lowerneck -11.69481907895969 -7.16441274399156 -8.465029307115913
upperneck 7.5261058905780605 -9.430972429621992 8.659499005938818
head 5.462457569033558 -4.3097771019104005 3.5518410156367075
rclavicle -1.0284902046134076E-14 3.1504071993945173E-16
rhumerus 3.809527803975983 -12.74026919390239 -67.41100323287903
rradius 19.026022734666313
rwrist 57.638130394244754
rhand -7.5580612855789795 21.881028824606915
rfingers 7.125019999999912
rthumb 18.342795386531698 -7.814046580633317
lclavicle -6.349423089953317E-15 8.422348538055684E-15
lhumerus -25.81523288237319 3.5434734414493754 78.87261703515559
lradius 38.58303673069812
lwrist -37.49260146834311
lhand -9.895028366245809 14.582551711015913
lfingers 7.0436379329029934
lthumb 15.770397699409305 70.80172524060667
rfemur -14.132852319253647 0.4006557189292401 22.959425351446235
rtibia 71.71871387683723
rfoot 10.998314285460921 -2.0529344633815665
rtoes 13.91566508148796
lfemur 1.4731954510379186 -2.3586959635544034 -29.838013272980888
ltibia 22.920060091128125
lfoot -18.71280170777669 2.473694598247726
ltoes 7.466111984573228
80
root 0 0 0 0.23138109693499587 12.923616094837776 -8.121614465660699
lowerback 5.383729626435367 1.5119759472875742 -2.093395891948729
upperback -0.1025368992666289 1.8338683072257829 -1.771642076459273
thorax -3.22661907037466 0.9631851970575325 -0.7192672954768478
lowerneck -11.829200401643082 -7.123515903146865 -8.539544905947082
upperneck 7.646648995276136 -9.409451993964865 8.87859551570571
head 5.510970658160919 -4.288962898670706 3.6306038456821965
rclavicle -1.027289970168021E-14 3.2025969838755855E-16
rhumerus 3.7809820191645738 -12.695492607755389 -67.43211343602212
rradius 18.971957092678608
rwrist 57.65365873754867
rhand -7.537089247703019 21.870701120724945
rfingers 7.125019999999912
rthumb 18.3628262568962 -7.8240027708598525
lclavicle -6.317391083315743E-15 8.474839970388936E-15
lhumerus -25.973988800400953 3.2156700889460907 79.1090401289636
lradius 38.89359576678732
lwrist -37.427277995627705
lhand -9.885129403850797 14.598321597884407
lfingers 7.042582305779138
lthumb 15.776407842850974 71.13919362199044
rfemur -14.05855090709085 0.453304069625597 22.95765862438628
rtibia 71.66191892067354
rfoot 11.019588338112179 -2.038697708603584
rtoes 14.0467664785078
lfemur 1.9754793543026938 -2.3727720730914603 -29.910025653209807
ltibia 22.714307199117485
lfoot -18.854308167840813 2.45776885140298
ltoes 7.149476974530346
81
root 0 0 0 -0.6726373999985111 10.413465335970827 -7.641658646839447
lowerback 4.956325538136691 1.468904708962618 -2.2159155821518457
upperback -0.2711415273999993 1.7810823132698173 -1.7856783350663834
thorax -3.152193120655982 0.935156305157304 -0.6579565961503373
lowerneck -12.059859407105009 -7.037828421328582 -8.661709923314627
upperneck 7.739457911583614 -9.343255519814516 9.207242839879612
head 5.5580675691815635 -4.240057188862466 3.7513570044955284
rclavicle -1.0263365440092789E-14 3.3262216100489295E-16
rhumerus 3.7717224928125948 -12.639050843580447 -67.441986674942
rradius 18.88563377584172
rwrist 57.67719209506278
rhand -7.509244771224406 21.850366090350445
rfingers 7.125019999999913
rthumb 18.389335206160755 -7.844170330645177
lclavicle -6.324141643187623E-15 8.520359015116753E-15
lhumerus -26.191386738025052 2.6947492663493122 79.45469027747674
lradius 39.40801344478705
lwrist -37.29112673268426
lhand -9.836464849818054 14.632414660472563
lfingers 7.041202847361193
lthumb 15.818614947883855 71.73374694889762
rfemur -13.989611869734224 0.5225042085548388 22.95254544543393
rtibia 71.59354805283216
rfoot 10.99016688481614 -2.040677002072714
rtoes 14.2267955976958
lfemur 2.721013451066833 -2.3947114870210156 -30.01282352029044
ltibia 22.39699254401372
lfoot -19.06004752001327 2.4294696857733546
ltoes 6.6635907629564635
82
root 0 0 0 -1.4029804609764502 8.392876559809448 -7.258767888324005
lowerback 4.593229200309302 1.4382981471077976 -2.32708865906188
upperback -0.41743265834291865 1.7423654580119354 -1.8081107193246133
thorax -3.0919631800853846 0.9145142645965731 -0.6131788795747508
lowerneck -12.257619283110088 -6.954514338555658 -8.760887579333389
upperneck 7.8057673960976 -9.270646007467755 9.46101462195152
head 5.594231820417376 -4.1906312858541135 3.8458864443496985
rclavicle -1.0267972679594895E-14 3.3650740281020485E-16
rhumerus 3.8122964393892955 -12.612492510283845 -67.41907615289871
rradius 18.83587889134195
rwrist 57.6815172250477
rhand -7.491696047588819 21.835326682667205
rfingers 7.125019999999913
rthumb 18.405898591324945 -7.8593025044681575
lclavicle -6.3880485884420356E-15 8.490883005484482E-15
lhumerus -26.34032485164822 2.3262141468566107 79.68006299723102
lradius 39.743192579094945
lwrist -37.179173958850384
lhand -9.735301628868317 14.659737217321004
lfingers 7.040268138995423
lthumb 15.912694064872742 72.01237335192883
rfemur -14.011987537695642 0.5553526308744061 22.929898966947
rtibia 71.56927583009653
rfoot 10.943847581149615 -2.058855969963309
rtoes 14.314003912925548
lfemur 3.192059495370321 -2.4100650030202075 -30.075918010410874
ltibia 22.17722184204966
lfoot -19.216023720191963 2.4296533974343797
ltoes 6.343667620872832
83
root 0 0 0 -2.2879631664919864 5.897810375589099 -6.8153575322809195
lowerback 4.149416288769474 1.4022732008577623 -2.463818130028021
upperback -0.598872375767427 1.6961413038297812 -1.8380950254891832
thorax -3.0207970754970095 0.8898548341365282 -0.5608967858440208
lowerneck -12.502921983094215 -6.845581121819878 -8.880317705283158
upperneck 7.845401884683765 -9.169975183349617 9.757024859176248
head 5.626013860541439 -4.124825461293062 3.957189584986851
rclavicle -1.0278055599769322E-14 3.4745627299929626E-16
rhumerus 3.8796816610946054 -12.588652067602505 -67.37670776771186
rradius 18.7785252919985
rwrist 57.6828668953592
rhand -7.474177874482095 21.814287597856303
rfingers 7.125019999999913
rthumb 18.422340943410795 -7.880656190548343
lclavicle -6.496948056955358E-15 8.44075809709299E-15
lhumerus -26.501546609029397 1.8971649155230281 79.93155013979042
lradius 40.14530733280097
lwrist -37.03418347129015
lhand -9.596865310519677 14.698018040235594
lfingers 7.039461728806363
lthumb 16.043095327976886 72.33150876271225
rfemur -14.067070081661463 0.5874200190402856 22.89774287116197
rtibia 71.55311046532984
rfoot 10.864243903067369 -2.0928291497435474
rtoes 14.403078556903486
lfemur 3.7105387062130237 -2.426408372983194 -30.144838244449183
ltibia 21.936102127618874
lfoot -19.38395687823178 2.426713749200717
ltoes 5.989733421218528
